<svg xmlns="http://www.w3.org/2000/svg" version="1.1" xmlns:xlink="http://www.w3.org/1999/xlink"
  xmlns:svgjs="http://svgjs.dev/svgjs" viewBox="0 0 2400 800" opacity="0.62">
  <defs>
    <linearGradient x1="50%" y1="0%" x2="50%" y2="100%" id="sssurf-grad">
      <stop stop-color="#26a641" stop-opacity="1" offset="0%"></stop>
      <stop stop-color="#3e8361ff" stop-opacity="1" offset="100%"></stop>
    </linearGradient>
  </defs>
  <g fill="url(#sssurf-grad)" transform="matrix(1,0,0,1,9.6998291015625,-102.42593383789062)">
    <path
      d="M-10,10C30.544871794871796,12.083333333333334,105.60897435897436,24.583333333333332,184.6153846153846,20C263.62179487179486,15.416666666666668,292.3076923076923,-14.5,369.2307692307692,-12C446.15384615384613,-9.5,476.9230769230769,31.583333333333332,553.8461538461538,32C630.7692307692307,32.416666666666664,661.5384615384615,-8.541666666666666,738.4615384615385,-10C815.3846153846154,-11.458333333333334,846.1538461538462,25,923.0769230769231,25C1000,25,1030.7692307692307,-9.791666666666666,1107.6923076923076,-10C1184.6153846153845,-10.208333333333334,1215.3846153846155,22.541666666666668,1292.3076923076924,24C1369.2307692307693,25.458333333333332,1400,-5.708333333333333,1476.923076923077,-3C1553.8461538461538,-0.29166666666666696,1584.6153846153845,34.291666666666664,1661.5384615384614,37C1738.4615384615383,39.708333333333336,1769.2307692307693,8.958333333333334,1846.1538461538462,10C1923.076923076923,11.041666666666666,1953.8461538461538,42.833333333333336,2030.7692307692307,42C2107.6923076923076,41.166666666666664,2138.461538461538,4.75,2215.3846153846152,6C2292.3076923076924,7.25,2309.455128205128,-34.08333333333334,2400,48C2490.544871794872,130.08333333333334,3254.1666666666665,222.5,2650,400C2045.8333333333335,577.5,156.25,795.8333333333334,-500,900"
      transform="matrix(1,0,0,1,0,131)" opacity="0.05"></path>
    <path
      d="M-10,10C30.544871794871796,12.083333333333334,105.60897435897436,24.583333333333332,184.6153846153846,20C263.62179487179486,15.416666666666668,292.3076923076923,-14.5,369.2307692307692,-12C446.15384615384613,-9.5,476.9230769230769,31.583333333333332,553.8461538461538,32C630.7692307692307,32.416666666666664,661.5384615384615,-8.541666666666666,738.4615384615385,-10C815.3846153846154,-11.458333333333334,846.1538461538462,25,923.0769230769231,25C1000,25,1030.7692307692307,-9.791666666666666,1107.6923076923076,-10C1184.6153846153845,-10.208333333333334,1215.3846153846155,22.541666666666668,1292.3076923076924,24C1369.2307692307693,25.458333333333332,1400,-5.708333333333333,1476.923076923077,-3C1553.8461538461538,-0.29166666666666696,1584.6153846153845,34.291666666666664,1661.5384615384614,37C1738.4615384615383,39.708333333333336,1769.2307692307693,8.958333333333334,1846.1538461538462,10C1923.076923076923,11.041666666666666,1953.8461538461538,42.833333333333336,2030.7692307692307,42C2107.6923076923076,41.166666666666664,2138.461538461538,4.75,2215.3846153846152,6C2292.3076923076924,7.25,2309.455128205128,-34.08333333333334,2400,48C2490.544871794872,130.08333333333334,3254.1666666666665,222.5,2650,400C2045.8333333333335,577.5,156.25,795.8333333333334,-500,900"
      transform="matrix(1,0,0,1,0,262)" opacity="0.24"></path>
    <path
      d="M-10,10C30.544871794871796,12.083333333333334,105.60897435897436,24.583333333333332,184.6153846153846,20C263.62179487179486,15.416666666666668,292.3076923076923,-14.5,369.2307692307692,-12C446.15384615384613,-9.5,476.9230769230769,31.583333333333332,553.8461538461538,32C630.7692307692307,32.416666666666664,661.5384615384615,-8.541666666666666,738.4615384615385,-10C815.3846153846154,-11.458333333333334,846.1538461538462,25,923.0769230769231,25C1000,25,1030.7692307692307,-9.791666666666666,1107.6923076923076,-10C1184.6153846153845,-10.208333333333334,1215.3846153846155,22.541666666666668,1292.3076923076924,24C1369.2307692307693,25.458333333333332,1400,-5.708333333333333,1476.923076923077,-3C1553.8461538461538,-0.29166666666666696,1584.6153846153845,34.291666666666664,1661.5384615384614,37C1738.4615384615383,39.708333333333336,1769.2307692307693,8.958333333333334,1846.1538461538462,10C1923.076923076923,11.041666666666666,1953.8461538461538,42.833333333333336,2030.7692307692307,42C2107.6923076923076,41.166666666666664,2138.461538461538,4.75,2215.3846153846152,6C2292.3076923076924,7.25,2309.455128205128,-34.08333333333334,2400,48C2490.544871794872,130.08333333333334,3254.1666666666665,222.5,2650,400C2045.8333333333335,577.5,156.25,795.8333333333334,-500,900"
      transform="matrix(1,0,0,1,0,393)" opacity="0.43"></path>
    <path
      d="M-10,10C30.544871794871796,12.083333333333334,105.60897435897436,24.583333333333332,184.6153846153846,20C263.62179487179486,15.416666666666668,292.3076923076923,-14.5,369.2307692307692,-12C446.15384615384613,-9.5,476.9230769230769,31.583333333333332,553.8461538461538,32C630.7692307692307,32.416666666666664,661.5384615384615,-8.541666666666666,738.4615384615385,-10C815.3846153846154,-11.458333333333334,846.1538461538462,25,923.0769230769231,25C1000,25,1030.7692307692307,-9.791666666666666,1107.6923076923076,-10C1184.6153846153845,-10.208333333333334,1215.3846153846155,22.541666666666668,1292.3076923076924,24C1369.2307692307693,25.458333333333332,1400,-5.708333333333333,1476.923076923077,-3C1553.8461538461538,-0.29166666666666696,1584.6153846153845,34.291666666666664,1661.5384615384614,37C1738.4615384615383,39.708333333333336,1769.2307692307693,8.958333333333334,1846.1538461538462,10C1923.076923076923,11.041666666666666,1953.8461538461538,42.833333333333336,2030.7692307692307,42C2107.6923076923076,41.166666666666664,2138.461538461538,4.75,2215.3846153846152,6C2292.3076923076924,7.25,2309.455128205128,-34.08333333333334,2400,48C2490.544871794872,130.08333333333334,3254.1666666666665,222.5,2650,400C2045.8333333333335,577.5,156.25,795.8333333333334,-500,900"
      transform="matrix(1,0,0,1,0,524)" opacity="0.62"></path>
    <path
      d="M-10,10C30.544871794871796,12.083333333333334,105.60897435897436,24.583333333333332,184.6153846153846,20C263.62179487179486,15.416666666666668,292.3076923076923,-14.5,369.2307692307692,-12C446.15384615384613,-9.5,476.9230769230769,31.583333333333332,553.8461538461538,32C630.7692307692307,32.416666666666664,661.5384615384615,-8.541666666666666,738.4615384615385,-10C815.3846153846154,-11.458333333333334,846.1538461538462,25,923.0769230769231,25C1000,25,1030.7692307692307,-9.791666666666666,1107.6923076923076,-10C1184.6153846153845,-10.208333333333334,1215.3846153846155,22.541666666666668,1292.3076923076924,24C1369.2307692307693,25.458333333333332,1400,-5.708333333333333,1476.923076923077,-3C1553.8461538461538,-0.29166666666666696,1584.6153846153845,34.291666666666664,1661.5384615384614,37C1738.4615384615383,39.708333333333336,1769.2307692307693,8.958333333333334,1846.1538461538462,10C1923.076923076923,11.041666666666666,1953.8461538461538,42.833333333333336,2030.7692307692307,42C2107.6923076923076,41.166666666666664,2138.461538461538,4.75,2215.3846153846152,6C2292.3076923076924,7.25,2309.455128205128,-34.08333333333334,2400,48C2490.544871794872,130.08333333333334,3254.1666666666665,222.5,2650,400C2045.8333333333335,577.5,156.25,795.8333333333334,-500,900"
      transform="matrix(1,0,0,1,0,655)" opacity="0.81"></path>
    <path
      d="M-10,10C30.544871794871796,12.083333333333334,105.60897435897436,24.583333333333332,184.6153846153846,20C263.62179487179486,15.416666666666668,292.3076923076923,-14.5,369.2307692307692,-12C446.15384615384613,-9.5,476.9230769230769,31.583333333333332,553.8461538461538,32C630.7692307692307,32.416666666666664,661.5384615384615,-8.541666666666666,738.4615384615385,-10C815.3846153846154,-11.458333333333334,846.1538461538462,25,923.0769230769231,25C1000,25,1030.7692307692307,-9.791666666666666,1107.6923076923076,-10C1184.6153846153845,-10.208333333333334,1215.3846153846155,22.541666666666668,1292.3076923076924,24C1369.2307692307693,25.458333333333332,1400,-5.708333333333333,1476.923076923077,-3C1553.8461538461538,-0.29166666666666696,1584.6153846153845,34.291666666666664,1661.5384615384614,37C1738.4615384615383,39.708333333333336,1769.2307692307693,8.958333333333334,1846.1538461538462,10C1923.076923076923,11.041666666666666,1953.8461538461538,42.833333333333336,2030.7692307692307,42C2107.6923076923076,41.166666666666664,2138.461538461538,4.75,2215.3846153846152,6C2292.3076923076924,7.25,2309.455128205128,-34.08333333333334,2400,48C2490.544871794872,130.08333333333334,3254.1666666666665,222.5,2650,400C2045.8333333333335,577.5,156.25,795.8333333333334,-500,900"
      transform="matrix(1,0,0,1,0,786)" opacity="1.00"></path>
  </g>
</svg>